<?xml version="1.0" encoding="UTF-8" standalone="no"?>
<!-- Created with Inkscape (http://www.inkscape.org/) -->

<svg
   width="512"
   height="512"
   viewBox="0 0 135.46667 135.46667"
   version="1.1"
   id="svg1"
   inkscape:version="1.3 (0e150ed, 2023-07-21)"
   sodipodi:docname="icon.svg"
   xmlns:inkscape="http://www.inkscape.org/namespaces/inkscape"
   xmlns:sodipodi="http://sodipodi.sourceforge.net/DTD/sodipodi-0.dtd"
   xmlns="http://www.w3.org/2000/svg"
   xmlns:svg="http://www.w3.org/2000/svg">
  <sodipodi:namedview
     id="namedview1"
     pagecolor="#ffffff"
     bordercolor="#000000"
     borderopacity="0.25"
     inkscape:showpageshadow="2"
     inkscape:pageopacity="0.0"
     inkscape:pagecheckerboard="true"
     inkscape:deskcolor="#d1d1d1"
     inkscape:document-units="mm"
     showguides="true"
     inkscape:zoom="1.9428642"
     inkscape:cx="198.4184"
     inkscape:cy="234.44768"
     inkscape:window-width="1728"
     inkscape:window-height="1080"
     inkscape:window-x="0"
     inkscape:window-y="37"
     inkscape:window-maximized="0"
     inkscape:current-layer="layer1">
    <sodipodi:guide
       position="31.137149,138.23032"
       orientation="0,-1"
       id="guide3"
       inkscape:locked="false" />
  </sodipodi:namedview>
  <defs
     id="defs1">
    <inkscape:path-effect
       effect="powerclip"
       id="path-effect131"
       is_visible="true"
       lpeversion="1"
       inverse="true"
       flatten="false"
       hide_clip="false"
       message="Use fill-rule evenodd on &lt;b&gt;fill and stroke&lt;/b&gt; dialog if no flatten result after convert clip to paths." />
    <inkscape:path-effect
       effect="powerclip"
       id="path-effect130"
       is_visible="true"
       lpeversion="1"
       inverse="true"
       flatten="false"
       hide_clip="false"
       message="Use fill-rule evenodd on &lt;b&gt;fill and stroke&lt;/b&gt; dialog if no flatten result after convert clip to paths." />
    <inkscape:path-effect
       effect="fillet_chamfer"
       id="path-effect15"
       is_visible="true"
       lpeversion="1"
       nodesatellites_param="F,0,0,1,0,0,0,1 @ F,0,0,1,0,0,0,1 @ F,0,0,1,0,0,0,1 @ F,0,0,1,0,0,0,1 @ F,0,0,1,0,0,0,1"
       radius="0"
       unit="px"
       method="auto"
       mode="F"
       chamfer_steps="1"
       flexible="false"
       use_knot_distance="true"
       apply_no_radius="true"
       apply_with_radius="true"
       only_selected="false"
       hide_knots="false" />
    <filter
       id="mask-powermask-path-effect133_inverse"
       inkscape:label="filtermask-powermask-path-effect133"
       style="color-interpolation-filters:sRGB"
       height="100"
       width="100"
       x="-50"
       y="-50">
      <feColorMatrix
         id="mask-powermask-path-effect133_primitive1"
         values="1"
         type="saturate"
         result="fbSourceGraphic" />
      <feColorMatrix
         id="mask-powermask-path-effect133_primitive2"
         values="-1 0 0 0 1 0 -1 0 0 1 0 0 -1 0 1 0 0 0 1 0 "
         in="fbSourceGraphic" />
    </filter>
  </defs>
  <g
     inkscape:label="Page"
     inkscape:groupmode="layer"
     id="layer1"
     style="display:inline">
    <path
       d="m 69.731661,65.000167 h -1.928048 l 0.918807,0.957047 z"
       style="fill:#f8f5ec;stroke-linejoin:round"
       id="path108" />
    <path
       d="m 61.47325,69.999862 h 3.794084 L 63.326367,67.97828 Z"
       style="fill:#f8f5ec;stroke-linejoin:round"
       id="path105" />
    <path
       d="M 27.130644,84.730229 V 120.3694 H 107.86938 V 57.582015 l -1.97869,-2.378666 -5.978442,6.841443 a 2.6460995,2.6460995 0 0 1 -1.222665,0.790132 2.6460995,2.6460995 0 0 1 -1.455208,0.02377 2.6460995,2.6460995 0 0 1 -1.247986,-0.749308 l -2.886645,-3.091801 -3.099553,2.929537 v 0.494027 a 2.5592058,2.5592058 0 0 1 -0.343131,1.279508 2.5592058,2.5592058 0 0 1 -0.936377,0.936377 2.5592058,2.5592058 0 0 1 -1.279509,0.343132 h -0.671793 l -1.613339,1.524971 a 2.6460995,2.6460995 0 0 1 -1.209228,0.652674 2.6460995,2.6460995 0 0 1 -1.37356,-0.04238 2.6460995,2.6460995 0 0 1 -1.166853,-0.725537 l -1.319817,-1.409733 h -2.66392 l -5.274096,4.999695 h 5.13457 a 2.7171916,2.7171916 0 0 1 1.358573,0.364319 2.7171916,2.7171916 0 0 1 0.994255,0.994254 2.7171916,2.7171916 0 0 1 0.363802,1.358573 v 4.56613 a 2.7171916,2.7171916 0 0 1 -0.363802,1.358573 2.7171916,2.7171916 0 0 1 -0.994255,0.994255 2.7171916,2.7171916 0 0 1 -1.358573,0.363802 H 57.71689 A 2.7171916,2.7171916 0 0 1 56.358317,79.63596 2.7171916,2.7171916 0 0 1 55.364062,78.641705 2.7171916,2.7171916 0 0 1 54.999744,77.283132 v -0.26665 a 2.6460995,2.6460995 0 0 1 -1.300179,0.747241 2.6460995,2.6460995 0 0 1 -1.592151,-0.147795 2.6460995,2.6460995 0 0 1 -1.21698,-1.037663 l -2.249992,-3.613216 -8.468734,9.298658 a 2.6460995,2.6460995 0 0 1 -1.168921,0.744657 2.6460995,2.6460995 0 0 1 -1.384928,0.05168 2.6460995,2.6460995 0 0 1 -1.221631,-0.655774 l -4.152201,-3.931543 z m 8.425842,0.269751 h 39.886971 a 2.5559456,2.5559456 0 0 1 0.568958,0.06408 2.5559456,2.5559456 0 0 1 0.540535,0.189136 2.5559456,2.5559456 0 0 1 0.484725,0.304374 2.5559456,2.5559456 0 0 1 0.404626,0.404627 2.5559456,2.5559456 0 0 1 0.304891,0.485242 2.5559456,2.5559456 0 0 1 0.188619,0.540018 2.5559456,2.5559456 0 0 1 0.06408,0.568958 v 2.887162 a 2.5559456,2.5559456 0 0 1 -0.06408,0.568958 2.5559456,2.5559456 0 0 1 -0.188619,0.540018 2.5559456,2.5559456 0 0 1 -0.304891,0.485242 2.5559456,2.5559456 0 0 1 -0.404626,0.404626 2.5559456,2.5559456 0 0 1 -0.484725,0.304375 2.5559456,2.5559456 0 0 1 -0.540535,0.189135 2.5559456,2.5559456 0 0 1 -0.568958,0.06408 H 35.556486 a 2.5559456,2.5559456 0 0 1 -1.278475,-0.342098 2.5559456,2.5559456 0 0 1 -0.93586,-0.93586 2.5559456,2.5559456 0 0 1 -0.342098,-1.278475 v -2.887162 a 2.5559456,2.5559456 0 0 1 0.342098,-1.278475 2.5559456,2.5559456 0 0 1 0.93586,-0.93586 2.5559456,2.5559456 0 0 1 1.278475,-0.342098 z m -0.05633,11.999784 h 59.999955 a 2.5001699,2.5001699 0 0 1 1.250053,0.33538 2.5001699,2.5001699 0 0 1 0.914673,0.914673 2.5001699,2.5001699 0 0 1 0.33538,1.250053 v 3.00033 a 2.5001699,2.5001699 0 0 1 -0.33538,1.24954 2.5001699,2.5001699 0 0 1 -0.914673,0.91519 2.5001699,2.5001699 0 0 1 -1.250053,0.33486 H 35.500159 a 2.5001699,2.5001699 0 0 1 -1.250053,-0.33486 2.5001699,2.5001699 0 0 1 -0.91519,-0.91519 2.5001699,2.5001699 0 0 1 -0.334863,-1.24954 v -3.00033 a 2.5001699,2.5001699 0 0 1 0.334863,-1.250053 2.5001699,2.5001699 0 0 1 0.91519,-0.914673 2.5001699,2.5001699 0 0 1 1.250053,-0.33538 z m 9.335864,12.000306 h 29.327926 a 2.8358036,2.8358036 0 0 1 0.553454,0.0543 2.8358036,2.8358036 0 0 1 0.531751,0.16174 2.8358036,2.8358036 0 0 1 0.490409,0.262 2.8358036,2.8358036 0 0 1 0.429948,0.35244 2.8358036,2.8358036 0 0 1 0.352433,0.42994 2.8358036,2.8358036 0 0 1 0.262,0.49041 2.8358036,2.8358036 0 0 1 0.161747,0.53175 2.8358036,2.8358036 0 0 1 0.05426,0.55346 v 2.32802 a 2.8358036,2.8358036 0 0 1 -0.05426,0.55346 2.8358036,2.8358036 0 0 1 -0.161747,0.53175 2.8358036,2.8358036 0 0 1 -0.262,0.49041 2.8358036,2.8358036 0 0 1 -0.352433,0.42994 2.8358036,2.8358036 0 0 1 -0.429948,0.35244 2.8358036,2.8358036 0 0 1 -0.490409,0.262 2.8358036,2.8358036 0 0 1 -0.531751,0.16123 2.8358036,2.8358036 0 0 1 -0.553454,0.0548 H 44.836023 a 2.8358036,2.8358036 0 0 1 -1.418001,-0.37982 2.8358036,2.8358036 0 0 1 -1.03818,-1.03818 2.8358036,2.8358036 0 0 1 -0.379822,-1.418 v -2.32802 a 2.8358036,2.8358036 0 0 1 0.379822,-1.418 2.8358036,2.8358036 0 0 1 1.03818,-1.03818 2.8358036,2.8358036 0 0 1 1.418001,-0.37982 z"
       style="fill:#f8f5ec;stroke-linejoin:round"
       id="path102" />
    <path
       d="m 109.1923,59.172099 -1.32292,-1.590084 V 120.3694 H 27.130644 V 84.730229 l -1.322917,1.619022 V 121.69231 H 109.1923 Z"
       style="fill:#7d1271;stroke-linejoin:round"
       id="path101" />
    <path
       d="m 27.130644,76.366915 2.816365,-3.446818 a 2.6460995,2.6460995 0 0 1 1.172022,-0.822172 2.6460995,2.6460995 0 0 1 1.428336,-0.09147 2.6460995,2.6460995 0 0 1 1.267106,0.665592 l 4.259689,4.034896 9.007719,-9.888802 a 2.6460995,2.6460995 0 0 1 1.386995,-0.801502 2.6460995,2.6460995 0 0 1 1.595252,0.145211 2.6460995,2.6460995 0 0 1 1.219047,1.039213 l 2.255676,3.623035 5.339726,-5.823934 H 47.558337 A 2.5592058,2.5592058 0 0 1 46.279346,64.657035 2.5592058,2.5592058 0 0 1 45.342969,63.720658 2.5592058,2.5592058 0 0 1 44.999837,62.44115 v -4.882389 a 2.5592058,2.5592058 0 0 1 0.343132,-1.279509 2.5592058,2.5592058 0 0 1 0.936377,-0.936377 2.5592058,2.5592058 0 0 1 1.278991,-0.343131 h 39.882837 a 2.5592058,2.5592058 0 0 1 1.279509,0.343131 2.5592058,2.5592058 0 0 1 0.273368,0.273368 l 2.404505,-2.272729 a 2.6460995,2.6460995 0 0 1 1.209745,-0.65164 2.6460995,2.6460995 0 0 1 1.373559,0.04289 2.6460995,2.6460995 0 0 1 1.166337,0.726053 l 2.705262,2.896465 6.095751,-6.974252 a 2.6460995,2.6460995 0 0 1 0.91261,-0.674377 2.6460995,2.6460995 0 0 1 1.11104,-0.22996 2.6460995,2.6460995 0 0 1 1.10588,0.257348 2.6460995,2.6460995 0 0 1 0.79064,0.615467 V 24.892537 L 96.796676,14.630632 H 27.130644 Z M 45.302661,19.999813 h 44.394706 a 2.8029403,2.8029403 0 0 1 1.401465,0.375687 2.8029403,2.8029403 0 0 1 1.025777,1.025778 2.8029403,2.8029403 0 0 1 0.375171,1.401465 v 9.394775 a 2.8029403,2.8029403 0 0 1 -0.375171,1.400948 2.8029403,2.8029403 0 0 1 -1.025777,1.025777 2.8029403,2.8029403 0 0 1 -1.401465,0.375688 H 45.302661 a 2.8029403,2.8029403 0 0 1 -1.401465,-0.375688 2.8029403,2.8029403 0 0 1 -1.025777,-1.025777 2.8029403,2.8029403 0 0 1 -0.375171,-1.400948 v -9.394775 a 2.8029403,2.8029403 0 0 1 0.375171,-1.401465 2.8029403,2.8029403 0 0 1 1.025777,-1.025778 2.8029403,2.8029403 0 0 1 1.401465,-0.375687 z M 35.132739,40.000142 h 64.73455 a 2.6325483,2.6325483 0 0 1 0.586011,0.06563 2.6325483,2.6325483 0 0 1 0.55604,0.194821 2.6325483,2.6325483 0 0 1 0.49919,0.313676 2.6325483,2.6325483 0 0 1 0.41703,0.417028 2.6325483,2.6325483 0 0 1 0.31368,0.499195 2.6325483,2.6325483 0 0 1 0.19482,0.556555 2.6325483,2.6325483 0 0 1 0.0661,0.586011 v 2.421557 a 2.6325483,2.6325483 0 0 1 -0.0661,0.586011 2.6325483,2.6325483 0 0 1 -0.19482,0.556555 2.6325483,2.6325483 0 0 1 -0.31368,0.499195 2.6325483,2.6325483 0 0 1 -0.41703,0.417028 2.6325483,2.6325483 0 0 1 -0.49919,0.313676 2.6325483,2.6325483 0 0 1 -0.55604,0.194304 2.6325483,2.6325483 0 0 1 -0.586011,0.06614 h -64.73455 a 2.6325483,2.6325483 0 0 1 -1.316198,-0.352433 2.6325483,2.6325483 0 0 1 -0.963766,-0.963765 2.6325483,2.6325483 0 0 1 -0.35295,-1.316716 v -2.421557 a 2.6325483,2.6325483 0 0 1 0.35295,-1.316716 2.6325483,2.6325483 0 0 1 0.963766,-0.963765 2.6325483,2.6325483 0 0 1 1.316198,-0.352434 z"
       style="fill:#f8f5ec;stroke-linejoin:round"
       id="path96" />
    <path
       d="m 25.807727,77.985937 1.322917,-1.619022 V 14.630632 H 96.796676 L 107.86938,24.892537 V 49.35151 a 2.6460995,2.6460995 0 0 1 0.10542,0.08217 l 1.2175,1.463477 V 24.314795 L 97.315507,13.307715 h -71.50778 z"
       style="fill:#7d1271;stroke-linejoin:round"
       id="path95" />
    <path
       d="M 110.51573,60.763216 109.1923,59.172099 V 121.69231 H 25.807727 V 86.349251 l -1.323433,1.61954 v 33.722489 a 1.3230472,1.3230472 0 0 0 0.387573,0.93689 1.3230472,1.3230472 0 0 0 0.936894,0.38758 h 83.382509 a 1.3230472,1.3230472 0 0 0 0.40928,-0.0646 1.3230472,1.3230472 0 0 0 0.36948,-0.1881 1.3230472,1.3230472 0 0 0 0.29301,-0.29301 1.3230472,1.3230472 0 0 0 0.1881,-0.36948 1.3230472,1.3230472 0 0 0 0.0646,-0.40928 z"
       style="fill:#7d1271;stroke-linejoin:round"
       id="path94" />
    <path
       d="m 25.808761,11.984281 a 1.3230472,1.3230472 0 0 0 -0.936894,0.387574 1.3230472,1.3230472 0 0 0 -0.387573,0.936893 v 66.297246 l 1.323433,-1.620057 V 13.307715 h 71.50778 l 11.876793,11.00708 v 26.582357 l 1.32343,1.5906 V 24.314278 a 1.3230472,1.3230472 0 0 0 -0.0124,-0.180867 1.3230472,1.3230472 0 0 0 -0.0372,-0.177767 1.3230472,1.3230472 0 0 0 -0.061,-0.171049 1.3230472,1.3230472 0 0 0 -0.0837,-0.160714 1.3230472,1.3230472 0 0 0 -0.10542,-0.147795 1.3230472,1.3230472 0 0 0 -0.12402,-0.132291 L 98.214677,12.337748 a 1.3230472,1.3230472 0 0 0 -0.898136,-0.353467 z"
       style="fill:#7d1271;stroke-linejoin:round"
       id="path93" />
    <path
       d="m 48.105591,25.605672 v 3.788916 h 38.788847 v -3.788916 z"
       style="fill:#41d30d;stroke-linecap:round;stroke-linejoin:round"
       id="path111" />
    <path
       d="m 45.302661,22.802743 v 9.394775 h 44.394706 v -9.394775 z m 2.80293,2.802929 h 38.788847 v 3.788916 H 48.105591 Z"
       style="fill:#41d30d;stroke-linecap:round;stroke-linejoin:round"
       id="path110" />
    <path
       d="m 45.302661,19.999813 a 2.8029403,2.8029403 0 0 0 -1.401465,0.375687 2.8029403,2.8029403 0 0 0 -1.025777,1.025778 2.8029403,2.8029403 0 0 0 -0.375171,1.401465 v 9.394775 a 2.8029403,2.8029403 0 0 0 0.375171,1.400948 2.8029403,2.8029403 0 0 0 1.025777,1.025777 2.8029403,2.8029403 0 0 0 1.401465,0.375688 h 44.394706 a 2.8029403,2.8029403 0 0 0 1.401465,-0.375688 2.8029403,2.8029403 0 0 0 1.025777,-1.025777 2.8029403,2.8029403 0 0 0 0.375171,-1.400948 V 22.802743 A 2.8029403,2.8029403 0 0 0 92.124609,21.401278 2.8029403,2.8029403 0 0 0 91.098832,20.3755 2.8029403,2.8029403 0 0 0 89.697367,19.999813 Z m 0,2.80293 h 44.394706 v 9.394775 H 45.302661 Z"
       style="fill:#41d30d;stroke-linecap:round;stroke-linejoin:round"
       id="path109" />
    <path
       d="m 35.132222,42.63254 v 2.422074 H 99.867806 V 42.63254 Z"
       style="fill:#c53514;stroke-linecap:round;stroke-linejoin:round"
       id="path113" />
    <path
       d="m 35.132739,40.000142 a 2.6325483,2.6325483 0 0 0 -1.316198,0.352434 2.6325483,2.6325483 0 0 0 -0.963766,0.963765 2.6325483,2.6325483 0 0 0 -0.35295,1.316716 v 2.421557 a 2.6325483,2.6325483 0 0 0 0.35295,1.316716 2.6325483,2.6325483 0 0 0 0.963766,0.963765 2.6325483,2.6325483 0 0 0 1.316198,0.352433 h 64.73455 a 2.6325483,2.6325483 0 0 0 0.586011,-0.06614 2.6325483,2.6325483 0 0 0 0.55604,-0.194304 2.6325483,2.6325483 0 0 0 0.49919,-0.313676 2.6325483,2.6325483 0 0 0 0.41703,-0.417028 2.6325483,2.6325483 0 0 0 0.31368,-0.499195 2.6325483,2.6325483 0 0 0 0.19482,-0.556555 2.6325483,2.6325483 0 0 0 0.0661,-0.586011 v -2.421557 a 2.6325483,2.6325483 0 0 0 -0.0661,-0.586011 2.6325483,2.6325483 0 0 0 -0.19482,-0.556555 2.6325483,2.6325483 0 0 0 -0.31368,-0.499195 2.6325483,2.6325483 0 0 0 -0.41703,-0.417028 2.6325483,2.6325483 0 0 0 -0.49919,-0.313676 2.6325483,2.6325483 0 0 0 -0.55604,-0.194821 2.6325483,2.6325483 0 0 0 -0.586011,-0.06563 z m -5.17e-4,2.632398 h 64.735584 v 2.422074 H 35.132222 Z"
       style="fill:#c53514;stroke-linecap:round;stroke-linejoin:round"
       id="path112" />
    <path
       d="m 86.769381,65.000167 h 0.671793 a 2.5592058,2.5592058 0 0 0 1.279509,-0.343132 2.5592058,2.5592058 0 0 0 0.936377,-0.936377 2.5592058,2.5592058 0 0 0 0.343131,-1.279508 v -0.494027 z"
       style="fill:#2fc5e1;stroke-linecap:round;stroke-linejoin:round"
       id="path107" />
    <path
       d="m 77.422664,65.000167 h 2.66392 l -1.252636,-1.337903 z"
       style="fill:#2fc5e1;stroke-linecap:round;stroke-linejoin:round"
       id="path106" />
    <path
       d="m 86.938879,57.558761 h -6.937044 a 2.6460995,2.6460995 0 0 1 0.874882,0.542602 l 2.576587,2.752287 z"
       style="fill:#2fc5e1;stroke-linecap:round;stroke-linejoin:round"
       id="path100" />
    <path
       d="m 65.346916,62.44115 2.456697,2.559017 h 1.928048 l 2.69906,-2.559017 z"
       style="fill:#2fc5e1;stroke-linecap:round;stroke-linejoin:round"
       id="path99" />
    <path
       d="m 61.225203,62.44115 0.106971,-0.116789 a 2.6460995,2.6460995 0 0 1 1.209228,-0.752409 2.6460995,2.6460995 0 0 1 1.423686,-0.01654 2.6460995,2.6460995 0 0 1 1.226282,0.723987 l 0.155546,0.161747 h 7.083805 l 4.694287,-4.450891 a 2.6460995,2.6460995 0 0 1 0.797367,-0.431498 H 47.558854 v 4.882389 z"
       style="fill:#2fc5e1;stroke-linecap:round;stroke-linejoin:round"
       id="path98" />
    <path
       d="M 58.878577,65.000167 61.225203,62.44115 H 47.558854 v -4.882389 h 30.363521 a 2.6460995,2.6460995 0 0 1 0.411862,-0.222726 2.6460995,2.6460995 0 0 1 1.374593,0.04082 2.6460995,2.6460995 0 0 1 0.293005,0.181901 h 6.937044 l 2.055172,-1.942518 A 2.5592058,2.5592058 0 0 0 88.720683,55.342875 2.5592058,2.5592058 0 0 0 87.441174,54.999744 H 47.558337 a 2.5592058,2.5592058 0 0 0 -1.278991,0.343131 2.5592058,2.5592058 0 0 0 -0.936377,0.936377 2.5592058,2.5592058 0 0 0 -0.343132,1.279509 v 4.882389 a 2.5592058,2.5592058 0 0 0 0.343132,1.279508 2.5592058,2.5592058 0 0 0 0.936377,0.936377 2.5592058,2.5592058 0 0 0 1.278991,0.343132 z"
       style="fill:#2fc5e1;stroke-linecap:round;stroke-linejoin:round"
       id="path97" />
    <path
       d="m 57.71689,74.097286 v 3.185852 h 19.566248 v -4.56613 H 58.98193 Z"
       style="fill:#e97409;stroke-linecap:round;stroke-linejoin:round"
       id="path104" />
    <path
       d="m 54.999744,77.016488 v 0.26665 a 2.7171916,2.7171916 0 0 0 0.364318,1.358573 2.7171916,2.7171916 0 0 0 0.994255,0.994255 2.7171916,2.7171916 0 0 0 1.358573,0.363802 h 19.566248 a 2.7171916,2.7171916 0 0 0 1.358573,-0.363802 2.7171916,2.7171916 0 0 0 0.994255,-0.994255 2.7171916,2.7171916 0 0 0 0.363802,-1.358573 v -4.56613 a 2.7171916,2.7171916 0 0 0 -0.363802,-1.358573 2.7171916,2.7171916 0 0 0 -0.994255,-0.994254 2.7171916,2.7171916 0 0 0 -1.358573,-0.364319 h -5.13457 l -1.693437,1.605586 a 2.6460995,2.6460995 0 0 1 -1.198376,0.652157 2.6460995,2.6460995 0 0 1 -1.363225,-0.03152 2.6460995,2.6460995 0 0 1 -1.166854,-0.706416 L 65.267334,69.999862 H 61.47325 l -2.49132,2.717146 h 18.301208 v 4.56613 H 57.71689 v -3.185852 l -2.630847,2.869592 a 2.6460995,2.6460995 0 0 1 -0.0863,0.04961 z"
       style="fill:#e97409;stroke-linecap:round;stroke-linejoin:round"
       id="path103" />
    <path
       d="m 35.555452,87.555896 v 2.888196 h 39.889039 v -2.888196 z"
       style="fill:#f7838e;stroke-linecap:round;stroke-linejoin:round"
       id="path115" />
    <path
       d="m 35.556486,84.99998 a 2.5559456,2.5559456 0 0 0 -1.278475,0.342098 2.5559456,2.5559456 0 0 0 -0.93586,0.93586 2.5559456,2.5559456 0 0 0 -0.342098,1.278475 v 2.887162 a 2.5559456,2.5559456 0 0 0 0.342098,1.278475 2.5559456,2.5559456 0 0 0 0.93586,0.93586 2.5559456,2.5559456 0 0 0 1.278475,0.342098 h 39.886971 a 2.5559456,2.5559456 0 0 0 0.568958,-0.06408 2.5559456,2.5559456 0 0 0 0.540535,-0.189135 2.5559456,2.5559456 0 0 0 0.484725,-0.304375 2.5559456,2.5559456 0 0 0 0.404626,-0.404626 2.5559456,2.5559456 0 0 0 0.304891,-0.485242 2.5559456,2.5559456 0 0 0 0.188619,-0.540018 2.5559456,2.5559456 0 0 0 0.06408,-0.568958 v -2.887162 a 2.5559456,2.5559456 0 0 0 -0.06408,-0.568958 2.5559456,2.5559456 0 0 0 -0.188619,-0.540018 2.5559456,2.5559456 0 0 0 -0.304891,-0.485242 2.5559456,2.5559456 0 0 0 -0.404626,-0.404627 2.5559456,2.5559456 0 0 0 -0.484725,-0.304374 2.5559456,2.5559456 0 0 0 -0.540535,-0.189136 2.5559456,2.5559456 0 0 0 -0.568958,-0.06408 z m -10e-4,2.555916 h 39.889039 v 2.888196 H 35.555452 Z"
       style="fill:#f7838e;stroke-linecap:round;stroke-linejoin:round"
       id="path114" />
    <path
       d="m 35.500159,99.49987 v 3.00033 h 59.999955 v -3.00033 z"
       style="fill:#1c20eb;stroke-linecap:round;stroke-linejoin:round"
       id="path117" />
    <path
       d="m 35.500159,96.999764 a 2.5001699,2.5001699 0 0 0 -1.250053,0.33538 2.5001699,2.5001699 0 0 0 -0.91519,0.914673 2.5001699,2.5001699 0 0 0 -0.334863,1.250053 v 3.00033 a 2.5001699,2.5001699 0 0 0 0.334863,1.24954 2.5001699,2.5001699 0 0 0 0.91519,0.91519 2.5001699,2.5001699 0 0 0 1.250053,0.33486 h 59.999955 a 2.5001699,2.5001699 0 0 0 1.250053,-0.33486 2.5001699,2.5001699 0 0 0 0.914673,-0.91519 2.5001699,2.5001699 0 0 0 0.33538,-1.24954 v -3.00033 a 2.5001699,2.5001699 0 0 0 -0.33538,-1.250053 2.5001699,2.5001699 0 0 0 -0.914673,-0.914673 2.5001699,2.5001699 0 0 0 -1.250053,-0.33538 z m 0,2.500106 h 59.999955 v 3.00033 H 35.500159 Z"
       style="fill:#1c20eb;stroke-linecap:round;stroke-linejoin:round"
       id="path116" />
    <path
       d="m 44.835506,111.83555 v 2.32906 h 29.328959 v -2.32906 z"
       style="fill:#ec2196;stroke-linecap:round;stroke-linejoin:round"
       id="path119" />
    <path
       d="m 44.836023,109.00007 a 2.8358036,2.8358036 0 0 0 -1.418001,0.37982 2.8358036,2.8358036 0 0 0 -1.03818,1.03818 2.8358036,2.8358036 0 0 0 -0.379822,1.418 v 2.32802 a 2.8358036,2.8358036 0 0 0 0.379822,1.418 2.8358036,2.8358036 0 0 0 1.03818,1.03818 2.8358036,2.8358036 0 0 0 1.418001,0.37982 h 29.327926 a 2.8358036,2.8358036 0 0 0 0.553454,-0.0548 2.8358036,2.8358036 0 0 0 0.531751,-0.16123 2.8358036,2.8358036 0 0 0 0.490409,-0.262 2.8358036,2.8358036 0 0 0 0.429948,-0.35244 2.8358036,2.8358036 0 0 0 0.352433,-0.42994 2.8358036,2.8358036 0 0 0 0.262,-0.49041 2.8358036,2.8358036 0 0 0 0.161747,-0.53175 2.8358036,2.8358036 0 0 0 0.05426,-0.55346 v -2.32802 a 2.8358036,2.8358036 0 0 0 -0.05426,-0.55346 2.8358036,2.8358036 0 0 0 -0.161747,-0.53175 2.8358036,2.8358036 0 0 0 -0.262,-0.49041 2.8358036,2.8358036 0 0 0 -0.352433,-0.42994 2.8358036,2.8358036 0 0 0 -0.429948,-0.35244 2.8358036,2.8358036 0 0 0 -0.490409,-0.262 A 2.8358036,2.8358036 0 0 0 74.717403,109.0543 2.8358036,2.8358036 0 0 0 74.163949,109 Z m -5.17e-4,2.83548 h 29.328959 v 2.32906 H 44.835506 Z"
       style="fill:#ec2196;stroke-linecap:round;stroke-linejoin:round"
       id="path118" />
  </g>
  <g
     inkscape:groupmode="layer"
     id="layer2"
     inkscape:label="Tear"
     style="display:inline">
    <path
       id="path133"
       style="color:#000000;fill:#7d1271;stroke-linecap:round;stroke-linejoin:round;-inkscape-stroke:none;stroke:none;stroke-opacity:1"
       d="M 105.98423 47.478239 L 105.98423 47.478756 C 105.45703 47.472456 104.93443 47.579955 104.45306 47.795015 C 103.97164 48.010173 103.54228 48.327657 103.19525 48.724674 L 97.828137 54.865385 L 95.878902 52.77714 C 95.440463 52.307916 94.885897 51.963241 94.271248 51.777201 C 93.656854 51.591309 93.003658 51.571618 92.378857 51.718807 C 91.753895 51.866088 91.17965 52.176116 90.712809 52.616943 A 1.0001 1.0001 0 0 0 90.710742 52.616943 L 83.496195 59.435649 L 81.607422 57.418201 A 1.0001 1.0001 0 0 0 81.605355 57.418201 C 81.166159 56.949433 80.611335 56.604907 79.996151 56.419812 C 79.381057 56.234605 78.728761 56.215119 78.10376 56.363485 C 77.47868 56.511904 76.903948 56.821677 76.437712 57.263688 L 68.75601 64.546965 L 65.912256 61.585905 C 65.450805 61.105261 64.86619 60.76196 64.222437 60.5901 C 63.578727 60.418572 62.901249 60.426459 62.261833 60.613354 C 61.622257 60.799952 61.046046 61.157376 60.595785 61.648433 L 53.693363 69.17769 L 52.132735 66.671899 A 1.0001 1.0001 0 0 0 52.130668 66.671899 C 51.832754 66.19403 51.428826 65.791571 50.949345 65.496261 C 50.46997 65.200869 49.929826 65.019803 49.36908 64.968644 C 48.808381 64.917544 48.243387 64.997416 47.718534 65.201188 C 47.193576 65.405026 46.72329 65.728077 46.343941 66.144283 A 1.0001 1.0001 0 0 0 46.341874 66.144283 L 38.021452 75.279126 L 34.50177 71.945479 C 34.015131 71.485233 33.410748 71.16876 32.755623 71.029256 C 32.100525 70.889691 31.419214 70.932323 30.787268 71.154313 C 30.155146 71.376354 29.595813 71.768266 29.171863 72.287061 L 24.499797 78.006091 L 24.499797 81.166622 L 30.720605 73.552616 C 30.912065 73.318327 31.16584 73.141295 31.45131 73.04102 C 31.736702 72.940769 32.04378 72.921146 32.339628 72.984176 C 32.635486 73.047176 32.907406 73.19077 33.127177 73.398621 L 37.386865 77.433516 A 1.0001 1.0001 0 0 0 38.812618 77.380806 L 47.820337 67.492004 C 47.991628 67.304073 48.204449 67.158232 48.441488 67.066191 C 48.678478 66.974181 48.93452 66.937697 49.187695 66.960771 C 49.440895 66.983871 49.683859 67.065618 49.900313 67.198999 C 50.11642 67.332098 50.299165 67.514978 50.433614 67.730233 L 52.68929 71.353267 A 1.0001 1.0001 0 0 0 54.27524 71.500028 L 62.068563 62.999772 C 62.271904 62.778008 62.533686 62.617402 62.822522 62.533134 C 63.111285 62.448734 63.416522 62.443788 63.707222 62.521248 C 63.997944 62.598858 64.262092 62.755841 64.470483 62.9729 L 68.002051 66.650195 A 1.0001 1.0001 0 0 0 69.410234 66.683785 L 77.812305 58.716829 C 78.022849 58.517224 78.28192 58.375609 78.564197 58.308586 C 78.846438 58.241586 79.142192 58.250267 79.419958 58.333907 C 79.697767 58.417497 79.948153 58.573357 80.146529 58.785042 L 82.722599 61.537329 A 1.0001 1.0001 0 0 0 84.140601 61.580221 L 92.085852 54.070085 C 92.296672 53.871013 92.555519 53.732485 92.837744 53.665975 C 93.119894 53.599505 93.413987 53.607346 93.691439 53.691296 C 93.969006 53.775306 94.220017 53.930537 94.418009 54.142432 L 97.123271 57.038896 A 1.0001 1.0001 0 0 0 98.605351 57.015641 L 104.7011 50.040873 C 104.85779 49.861609 105.05217 49.718407 105.26954 49.621261 C 105.48689 49.524151 105.72293 49.475784 105.96097 49.478634 C 106.19921 49.481734 106.43324 49.536195 106.64827 49.638831 C 106.86328 49.74136 107.05308 49.889199 107.20534 50.072396 A 1.0001 1.0001 0 0 0 107.20689 50.072396 L 110.50023 54.031844 L 110.50023 50.90542 L 108.74427 48.794954 C 108.40706 48.389224 107.98591 48.060852 107.50972 47.833773 C 107.0335 47.606467 106.51394 47.48501 105.9863 47.478239 A 1.0001 1.0001 0 0 0 105.98423 47.478239 z M 105.9031 54.202893 A 1.0001 1.0001 0 0 0 105.13674 54.544991 L 99.160356 61.386951 C 98.957719 61.618734 98.693215 61.789382 98.398645 61.87891 C 98.104139 61.96838 97.791578 61.972663 97.494307 61.892863 C 97.196968 61.813103 96.927258 61.650661 96.717094 61.425708 L 93.830448 58.335974 A 1.0001 1.0001 0 0 0 92.412447 58.291016 L 84.468746 65.799084 C 84.258054 65.998224 83.998997 66.136539 83.716854 66.203194 C 83.434628 66.269824 83.141257 66.261773 82.863676 66.177873 C 82.586179 66.094043 82.335175 65.938398 82.137105 65.726737 L 79.564653 62.978585 A 1.0001 1.0001 0 0 0 78.146651 62.937244 L 69.767834 70.878878 A 1.0001 1.0001 0 0 0 69.767834 70.880945 C 69.559127 71.079003 69.301249 71.217248 69.021627 71.285055 C 68.741938 71.352783 68.449877 71.345997 68.173617 71.265417 C 67.897362 71.184869 67.646479 71.033606 67.447046 70.826168 L 64.046737 67.285299 A 1.0001 1.0001 0 0 0 62.589978 67.302869 L 54.349654 76.290951 C 54.17809 76.477948 53.96529 76.6234 53.728503 76.714697 C 53.491709 76.806127 53.237121 76.8419 52.984363 76.818567 C 52.73158 76.795177 52.487274 76.713643 52.271228 76.580339 C 52.055661 76.447266 51.874155 76.263983 51.739994 76.049105 L 49.490002 72.435372 A 1.0001 1.0001 0 0 0 47.900435 72.291195 L 39.431702 81.589852 C 39.234738 81.806169 38.984424 81.965793 38.705131 82.052873 A 1.0001 1.0001 0 0 0 38.705131 82.05494 C 38.425755 82.14208 38.128777 82.152036 37.843685 82.085946 C 37.558671 82.019866 37.296548 81.878802 37.084041 81.677702 L 32.93184 77.746159 A 1.0001 1.0001 0 0 0 31.46888 77.839693 L 24.499797 86.367855 L 24.499797 89.528902 L 32.338078 79.937756 L 35.708931 83.130843 C 36.179505 83.576159 36.759348 83.888847 37.390483 84.035181 C 38.021789 84.18152 38.682311 84.155802 39.30096 83.962834 C 39.919426 83.770002 40.47401 83.416585 40.910164 82.937573 L 48.490063 74.615084 L 50.040873 77.107438 C 50.338149 77.58447 50.742361 77.985757 51.220646 78.28101 C 51.699113 78.576237 52.23902 78.756819 52.798844 78.808626 A 1.0001 1.0001 0 0 0 52.800911 78.808626 C 53.360032 78.860236 53.923419 78.782172 54.447323 78.580216 C 54.971722 78.378026 55.442477 78.056946 55.822432 77.642806 L 63.343937 69.439689 L 66.00579 72.212646 C 66.447423 72.672003 67.001698 73.007352 67.613444 73.185714 C 68.225206 73.364155 68.873046 73.38066 69.492399 73.230672 A 1.0001 1.0001 0 0 0 69.492399 73.230155 A 1.0001 1.0001 0 0 0 69.492399 73.229639 A 1.0001 1.0001 0 0 0 69.492399 73.229122 A 1.0001 1.0001 0 0 0 69.492399 73.228605 C 70.111602 73.07845 70.680256 72.768537 71.142428 72.329952 L 71.142428 72.332019 L 78.791056 65.080265 L 80.675696 67.093579 C 81.114305 67.562285 81.668856 67.906331 82.28335 68.091968 C 82.898029 68.277757 83.550776 68.297907 84.175741 68.150362 C 84.800523 68.002759 85.377295 67.692688 85.843856 67.251709 L 93.056852 60.435588 L 95.255684 62.790999 A 1.0001 1.0001 0 0 0 95.255684 62.793066 C 95.721045 63.291172 96.316052 63.647401 96.974443 63.824011 C 97.63268 64.000715 98.328405 63.989042 98.980522 63.790938 C 99.632775 63.5927 100.21751 63.216384 100.66621 62.703149 L 105.87106 56.74589 L 110.50023 62.308341 L 110.50023 59.179333 L 106.66016 54.564628 A 1.0001 1.0001 0 0 0 105.9031 54.202893 z " />
  </g>
</svg>
